<svg width="265" height="265" xmlns="http://www.w3.org/2000/svg">
 <g>
  <title>background</title>
  <rect x="-1" y="-1" width="267" height="267" id="canvas_background" fill="none"/>
 </g>

 <g>
  <title>Layer 1</title>
  <g id="svg_8">
   <g id="svg_5">
    <path fill="#fff" d="m5.5,65.474077c0,0 7,5 35.5,-1.5c28.5,-6.5 86.5,-30.5 149,5.5c0,0 51.5,-1.5 69.5,14c-26.5,-9.5 -75,-6.5 -75,-6.5s-39,-44 -142,-5.5c-17,4.5 -25,5 -25,5s-11,-5 -12,-11zm61.5,4.5c0,0 21.5,-15 52,-10c-0.5,8 -2,17.5 -2,17.5l-1.5,-13.5c0,0 -38,-1 -48.5,6zm67,-9.5c0,0 22,0 43,17c-12.5,0.5 -51.5,0.5 -51.5,0.5l36.5,-4c0,0 -1.5,-6.5 -28,-13.5z" id="svg_1"/>
    <path fill="#fff" d="m33.17,110.631077c0,-11.313 9.172,-20.485 20.486,-20.485c10.364,0 18.926,7.698 20.291,17.688c0.004,-0.164 0.014,-0.328 0.014,-0.494c-0.001,-12.83 -10.401,-23.23 -23.232,-23.23c-12.829,0 -23.229,10.4 -23.229,23.229c0,12.074 9.211,21.994 20.989,23.121c-8.812,-2.291 -15.319,-10.299 -15.319,-19.829z" class="color c1" id="svg_2"/>
    <path fill="#fff" d="m202.939501,110.631077c0,-11.313 9.172,-20.485 20.486,-20.485c10.364,0 18.926,7.698 20.291,17.688c0.004,-0.164 0.014,-0.328 0.014,-0.494c-0.001,-12.83 -10.401,-23.23 -23.232,-23.23c-12.829,0 -23.229,10.4 -23.229,23.229c0,12.074 9.211,21.994 20.989,23.121c-8.812,-2.291 -15.319,-10.299 -15.319,-19.829z" class="color c1" id="svg_3"/>
    <path fill="#f6bc1a" d="m96.752014,106.411077l14.3,0l0,14.295l-14.3,0l0,-14.295zm14.3,0l14.297,0l0,-14.301l-14.297,0l0,14.301zm14.298,14.295l14.298,0l0,-14.295l-14.298,0l0,14.295zm14.298,-28.596l0,14.301l14.303,0l0,-14.301l-14.303,0zm14.303,14.301l0,14.295l14.297,0l0,-14.295l-14.297,0z" class="color c1" id="svg_4"/>
   </g>
   <g fill="none" font-size="9pt" fill-rule="evenodd" stroke-linecap="round" id="svgGroup">
    <path id="svg_6" fill="#fff" d="m140.886501,190.719077l8.869,-13.266l-8.943,-14.324l12.116,0l5.381,8.609l5.492,-8.609l4.843,0l-8.053,12.283l9.574,15.289l-12.116,0.018l-6.049,-9.648l-6.253,9.648l-4.861,0zm-32.638,0l10.131,-20.632l-3.191,-6.958l11.3,0l13.508,27.59l-12.117,0l-2.041,-4.416l-10.873,0l-2.022,4.416l-4.695,0zm-20.113,-0.018l0,-23.342l-7.867,0l0,-4.249l26.459,0l0,4.249l-7.867,0l0,23.342l-10.725,0zm85.853,0l0,-27.572l10.743,0l-0.019,27.572l-10.724,0zm-57.056,-8.647l6.958,0l-3.488,-7.57l-3.47,7.57z"/>
   </g>
   <g fill="none" font-size="9pt" fill-rule="evenodd" stroke-linecap="round" id="svgGroup">
    <path id="svg_7" fill="#fff" d="m147.260003,214.610078l0,-14l1.9,0l0,5.78l7.12,0l0,-5.78l1.9,0l0,14l-1.9,0l0,-6.42l-7.12,0l0,6.42l-1.9,0zm-2.26,-13.46l-0.2,1.76a9,9 0 0 0 -1.985,-0.689a7.463,7.463 0 0 0 -1.575,-0.171a5.859,5.859 0 0 0 -1.345,0.147a4.46,4.46 0 0 0 -1.395,0.583q-1.14,0.73 -1.72,1.99a6.327,6.327 0 0 0 -0.529,1.93a7.897,7.897 0 0 0 -0.051,0.91a7.398,7.398 0 0 0 0.173,1.632a6.082,6.082 0 0 0 0.407,1.208q0.58,1.26 1.7,1.99q1.12,0.73 2.72,0.73q1.88,0 3.6,-0.84l0.2,1.76a8.842,8.842 0 0 1 -3.178,0.78a10.423,10.423 0 0 1 -0.642,0.02q-2.04,0 -3.64,-0.9q-1.6,-0.9 -2.51,-2.55a7.273,7.273 0 0 1 -0.821,-2.519a9.372,9.372 0 0 1 -0.089,-1.311q0,-2.18 0.92,-3.83q0.92,-1.65 2.54,-2.55a7.172,7.172 0 0 1 2.8,-0.857a8.821,8.821 0 0 1 0.88,-0.043q1.02,0 2,0.22a8.578,8.578 0 0 1 0.979,0.279a6.666,6.666 0 0 1 0.761,0.321zm-37.38,-0.54l2.16,0l-4.92,7.94l0,6.06l-1.9,0l0,-6.06l-4.94,-7.94l2.16,0l3.72,6.08l3.72,-6.08zm12.14,14l-1.34,-3.78l-5.36,0l-1.34,3.78l-2,0l5.02,-14l2,0l5.02,14l-2,0zm-34.46,0l0,-14l5.18,0a8.541,8.541 0 0 1 2.01,0.227a6.961,6.961 0 0 1 1.61,0.603q1.58,0.83 2.46,2.42a6.913,6.913 0 0 1 0.756,2.21a9.206,9.206 0 0 1 0.124,1.54a8.923,8.923 0 0 1 -0.19,1.885a6.783,6.783 0 0 1 -0.69,1.865q-0.88,1.59 -2.46,2.42a7.221,7.221 0 0 1 -2.479,0.761a9.136,9.136 0 0 1 -1.141,0.069l-5.18,0zm38.2,0l0,-14l4.62,0a7.434,7.434 0 0 1 1.363,0.117q0.785,0.147 1.403,0.476a3.852,3.852 0 0 1 0.724,0.497a3.351,3.351 0 0 1 0.957,1.462q0.192,0.554 0.258,1.237a7.792,7.792 0 0 1 0.035,0.751q0,1.586 -0.589,2.611a3.297,3.297 0 0 1 -0.671,0.829a4.2,4.2 0 0 1 -1.693,0.898q-0.798,0.222 -1.787,0.222l-2.62,0l0,4.9l-2,0zm50.26,0l-5.18,-7.42l5.18,-6.58l2.3,0l-5.32,6.54l5.38,7.46l-2.36,0zm-86.56,-1.72l3.28,0a6.123,6.123 0 0 0 1.482,-0.169a4.094,4.094 0 0 0 2.128,-1.261q1.27,-1.43 1.27,-3.85q0,-2.129 -0.983,-3.492a4.529,4.529 0 0 0 -0.287,-0.358a4.123,4.123 0 0 0 -2.252,-1.29a6.241,6.241 0 0 0 -1.358,-0.14l-3.28,0l0,10.56zm74.18,1.72l0,-14l1.9,0l0,14l-1.9,0zm5.1,0l0,-14l1.9,0l0,14l-1.9,0zm11.32,0l0,-14l1.9,0l0,14l-1.9,0zm-52.3,-6.6l2.34,0a5.403,5.403 0 0 0 0.846,-0.062q0.92,-0.146 1.454,-0.638q0.76,-0.7 0.76,-2.14q0,-0.946 -0.306,-1.573a2.055,2.055 0 0 0 -0.424,-0.587q-0.531,-0.509 -1.522,-0.648a5.839,5.839 0 0 0 -0.808,-0.052l-2.34,0l0,5.7zm-11.84,1.1l4.16,0l-2.08,-5.84l-2.08,5.84z"/>
   </g>
  </g>
 </g>
</svg>